<svg width="94" height="94" viewBox="0 0 94 94" fill="none" xmlns="http://www.w3.org/2000/svg">
<path d="M47 62.6667V31.3333" stroke="#183861" stroke-width="10" stroke-linecap="round"/>
<path d="M31.3334 54.8333V39.1667" stroke="#183861" stroke-width="10" stroke-linecap="round"/>
<path d="M62.6666 54.8333V39.1667" stroke="#183861" stroke-width="10" stroke-linecap="round"/>
<path d="M66.5834 13.0731C60.8223 9.74063 54.1339 7.83333 47 7.83333C25.3689 7.83333 7.83337 25.3688 7.83337 47C7.83337 53.2655 9.30455 59.1871 11.9203 64.4389C12.6154 65.8345 12.8467 67.4297 12.4438 68.9357L10.111 77.6546C9.09826 81.4392 12.5608 84.9016 16.3457 83.8891L25.0643 81.5564C26.5704 81.1533 28.1656 81.3848 29.5612 82.0796C34.8128 84.6956 40.7345 86.1667 47 86.1667C68.631 86.1667 86.1667 68.631 86.1667 47C86.1667 39.8662 84.2593 33.1776 80.927 27.4167" stroke="#183861" stroke-width="10" stroke-linecap="round"/>
</svg>
