<svg width="390" height="121" viewBox="0 0 390 121" fill="none" xmlns="http://www.w3.org/2000/svg">
<g clip-path="url(#clip0_91_759)">
<path d="M33.4433 0.148455L2.3793 0.222687L15.2956 11.8031C22.4039 18.1723 28.3153 23.3983 28.4187 23.428C28.5813 23.4577 64.0788 11.9367 64.2561 11.7882C64.3448 11.7288 66.798 0.564159 66.798 0.267227C66.798 0.0296803 66.665 -1.14441e-05 65.6601 0.0296803C65.0246 0.0593739 50.5271 0.103914 33.4433 0.148455Z" fill="#183861"/>
<path d="M69.8276 0.178153C69.6503 0.697784 67.5222 10.5708 67.5813 10.6302C67.6404 10.7044 99.9015 0.193 100.034 0.0593796C100.064 0.0296869 93.2956 -6.67572e-06 84.9902 -6.67572e-06C73.0493 -6.67572e-06 69.8719 0.0445328 69.8276 0.178153Z" fill="#183861"/>
<path d="M85.4926 7.86871C75.3399 11.2092 66.9458 13.9855 66.8571 14.0597C66.6946 14.1637 59.4828 46.3066 59.601 46.4105C59.6158 46.4402 69.6502 36.4039 81.8719 24.1258C94.1084 11.8328 104.084 1.78159 104.039 1.79644C103.995 1.79644 95.6601 4.52821 85.4926 7.86871Z" fill="#183861"/>
<path d="M3.04434 5.52295C5.83744 12.0852 16.8916 37.948 16.936 37.9925C16.9951 38.0668 51.1773 47.9546 51.2217 47.9101C51.266 47.8655 2.7931 4.3946 2.63054 4.33522C2.57143 4.30552 2.74877 4.84 3.04434 5.52295Z" fill="#183861"/>
<path d="M0.0443729 19.4342L0.0739296 33.1525L6.63551 35.0529C10.2562 36.107 13.2266 36.9384 13.2562 36.9087C13.2858 36.879 10.3153 29.8566 6.66506 21.29L0.0148163 5.71594L0.0443729 19.4342Z" fill="#183861"/>
<path d="M47.2167 20.3993C38.4384 23.2795 31.1675 25.6698 31.064 25.6995C30.9606 25.7292 36.5468 30.8513 43.4778 37.072C53.3941 45.9503 56.1133 48.3258 56.1872 48.1328C56.2463 47.9843 57.8867 40.6649 59.8522 31.846C61.803 23.0271 63.4286 15.6632 63.4729 15.4702C63.5172 15.2623 63.4877 15.1435 63.3695 15.1584C63.266 15.1584 55.9951 17.519 47.2167 20.3993Z" fill="#183861"/>
<path d="M228.769 18.5731C225.606 18.974 223.035 20.5923 222 22.8341C221.645 23.5913 221.601 23.8585 221.601 25.3135C221.601 26.7833 221.645 27.0357 222.015 27.8226C222.946 29.812 224.143 30.7325 227.97 32.3508C230.586 33.4643 232.463 34.5332 233.025 35.2607C233.453 35.7952 233.675 36.6563 233.557 37.2799C233.128 39.6108 230.438 40.7985 227.084 40.175C225.355 39.8335 223.197 39.0466 222.03 38.3191C221.512 37.9925 221.084 37.7995 221.084 37.9034C221.084 38.2152 222.281 42.5356 222.384 42.6395C222.443 42.6989 223.035 42.9067 223.67 43.0849C224.704 43.3521 225.251 43.3967 227.882 43.4115C230.793 43.4264 230.956 43.4115 232.094 43.0255C234.547 42.1793 236.335 40.7391 237.281 38.8239C237.739 37.8886 237.828 37.5323 237.887 36.4188C238.02 34.073 237.399 32.6923 235.611 31.3709C234.059 30.2277 233.527 29.9159 231.709 29.1736C228 27.6444 226.611 26.7685 226.094 25.6253C225.754 24.8829 225.739 24.3633 226.035 23.6358C226.507 22.5075 227.601 21.7948 229.33 21.5128C231.31 21.1861 233.113 21.6909 234.975 23.0865L235.493 23.4725L235.537 21.3643C235.552 20.2063 235.522 19.1967 235.463 19.1373C235.404 19.0779 234.665 18.8849 233.837 18.7216C232.271 18.395 230.512 18.3504 228.769 18.5731Z" fill="#183861"/>
<path d="M148.02 19.4045C148.315 19.7905 148.611 20.2656 148.685 20.4586C148.759 20.6516 148.818 25.2986 148.818 30.8216C148.818 41.9417 148.862 41.4221 147.813 42.491L147.281 43.0552H155.069C159.355 43.0552 162.857 43.0404 162.857 43.0107C162.857 42.981 163.227 41.912 163.67 40.6204C164.128 39.3139 164.453 38.2301 164.424 38.2004C164.379 38.1558 164.172 38.2597 163.936 38.4231C163.049 39.0466 161.66 39.6405 160.478 39.878C159.488 40.071 158.778 40.1156 156.798 40.0413C155.453 39.982 154.123 39.8929 153.842 39.8335L153.325 39.6999V35.5577V31.4006L155.158 31.4303C157.493 31.46 157.803 31.5194 158.704 32.1429L159.458 32.6626V30.584V28.5055H156.355H153.251V25.2393V21.973H156.384C159.443 21.973 159.517 21.973 160.138 22.3442C160.478 22.552 160.936 22.938 161.143 23.1904L161.527 23.6804V21.1861V18.7067H154.507H147.488L148.02 19.4045Z" fill="#183861"/>
<path d="M167.66 19.3155C168.739 20.518 168.68 19.9093 168.635 30.6583C168.606 41.3627 168.606 41.3182 167.66 42.4316L167.113 43.0552H172.433C179.601 43.0552 181.818 42.8028 184.064 41.719C186.576 40.5016 189.236 37.1462 189.975 34.2215C190.522 32.1281 190.522 29.0994 189.975 27.0209C189.163 23.8734 186.783 21.2604 183.547 19.9539C181.064 18.9443 178.951 18.7067 172.108 18.7067H167.113L167.66 19.3155ZM179.557 22.1215C182.749 23.042 184.906 25.2838 185.542 28.3274C185.823 29.619 185.823 31.8609 185.542 33.1822C184.862 36.4188 182.498 38.8388 179.113 39.7444C178.108 40.0116 174 40.1304 173.453 39.9077C173.217 39.8038 173.202 39.2693 173.232 30.8513L173.276 21.9136L173.645 21.7948C173.852 21.7355 175.02 21.7058 176.232 21.7355C177.961 21.78 178.685 21.8691 179.557 22.1215Z" fill="#183861"/>
<path d="M194.734 19.1818C195 19.4491 195.34 19.9687 195.502 20.3399C195.798 20.9783 195.813 21.2901 195.813 28.6095C195.813 33.0189 195.872 36.686 195.961 37.369C196.374 40.3977 198.296 42.3574 201.709 43.2185C202.773 43.4858 203.246 43.5155 205.035 43.4561C207.813 43.367 209.586 42.8474 211.301 41.6151L211.995 41.1252L212.039 42.0902L212.084 43.0552H215.113H218.143L217.419 42.3426C216.828 41.7636 216.65 41.4815 216.517 40.8431C216.414 40.3234 216.355 37.1017 216.355 30.8216C216.355 20.5626 216.34 20.6814 217.315 19.4045L217.847 18.7068H214.301H210.754L211.256 19.4639C211.537 19.8796 211.833 20.4735 211.921 20.8001C212.025 21.201 212.069 23.8734 212.039 28.847L211.995 36.3L211.64 37.176C210.887 39.0763 209.305 40.0562 206.793 40.2047C205.108 40.2937 203.852 40.0562 202.714 39.4475C201.709 38.9279 201.236 38.3934 200.704 37.265L200.32 36.4485L200.276 28.9212C200.246 23.9625 200.291 21.201 200.394 20.815C200.468 20.4884 200.808 19.8796 201.148 19.4639L201.754 18.7068H198.015H194.276L194.734 19.1818Z" fill="#183861"/>
<path d="M242.187 19.2561C243.163 20.518 243.103 19.746 243.103 30.881C243.103 42.1793 243.163 41.526 242.054 42.5356L241.478 43.0552H244.818H248.158L247.493 42.402C247.094 42.0159 246.754 41.526 246.65 41.1845C246.547 40.7837 246.502 38.2894 246.532 33.0486L246.576 25.4768L252.724 33.197C256.108 37.4283 259.241 41.2439 259.685 41.6745C260.926 42.8325 262.404 43.7381 263.542 44.0054L263.941 44.0945V32.4399C263.941 19.6718 263.882 20.5329 264.798 19.3303C265.005 19.0631 265.138 18.8107 265.094 18.781C265.049 18.7364 263.704 18.7216 262.108 18.7364L259.182 18.781L259.64 19.3451C260.557 20.518 260.557 20.4141 260.512 28.5352L260.468 35.8991L253.729 27.3475L246.99 18.781L244.374 18.7364L241.744 18.7067L242.187 19.2561Z" fill="#183861"/>
<path d="M101.926 44.0499C89.8374 52.9282 79.9655 60.2031 79.9951 60.2179C80.069 60.2921 113.985 49.6026 114.118 49.4689C114.31 49.2759 124.123 27.9116 124.02 27.9265C123.961 27.9265 114.03 35.1865 101.926 44.0499Z" fill="#183861"/>
<path d="M122.113 39.0912C119.808 44.0796 117.975 48.1922 118.005 48.2367C118.079 48.2961 126.192 45.787 126.31 45.6682C126.34 45.6534 126.34 42.1199 126.325 37.8292L126.281 30.0347L122.113 39.0912Z" fill="#183861"/>
<path d="M0 71.2489V106.376L15.0443 91.2622L30.1034 76.1483L22.4778 58.273L14.8522 40.4125L13.2266 39.9523C12.3399 39.6999 8.98522 38.7348 5.80788 37.8143L0 36.1218V71.2489Z" fill="#183861"/>
<path d="M17.5862 40.7391C17.5862 40.9173 32.069 74.6043 32.1724 74.634C32.3054 74.6785 55.2118 51.7108 55.1232 51.6217C55.0788 51.5772 46.803 49.172 36.7241 46.2621C26.6453 43.3521 18.2217 40.9025 18 40.8282C17.7636 40.754 17.5862 40.7094 17.5862 40.7391Z" fill="#183861"/>
<path d="M121.33 50.2855C118.611 51.1466 116.335 51.889 116.261 51.9483C116.054 52.1562 99.8867 87.3724 99.931 87.5506C99.9606 87.6396 105.901 93.029 113.128 99.5021L126.281 111.305L126.325 95.6568C126.34 87.0606 126.34 72.986 126.325 64.375L126.281 48.7266L121.33 50.2855Z" fill="#183861"/>
<path d="M367.315 53.047C366.68 53.2252 365.704 53.3439 364.788 53.3439L363.296 53.3736L363.724 53.9081C363.946 54.1902 364.212 54.6653 364.286 54.9474C364.507 55.7045 364.478 75.2279 364.256 75.8811C364.167 76.1632 363.901 76.6383 363.665 76.9352L363.222 77.4994H366.517H369.813L369.355 77.0095C368.453 76.0593 368.498 76.7868 368.424 64.2859L368.35 52.7798L367.315 53.047Z" fill="#183861"/>
<path d="M93.4433 59.0599C83.1724 62.2964 74.7783 64.9837 74.7783 65.0282C74.7783 65.1173 97.3448 85.4126 97.5222 85.472C97.5813 85.5017 112.02 54.3386 112.433 53.2697C112.463 53.2103 112.404 53.1509 112.286 53.1658C112.182 53.1658 103.7 55.8233 93.4433 59.0599Z" fill="#183861"/>
<path d="M147.916 53.6706C148.965 54.8731 148.892 54.0566 148.892 65.2509C148.892 76.5492 148.965 75.7326 147.813 76.9352L147.281 77.4994H151.094H154.906L154.36 76.8907C153.355 75.7623 153.399 76.3265 153.399 65.2955C153.399 54.2644 153.355 54.8137 154.345 53.626L154.759 53.1509H151.108H147.458L147.916 53.6706Z" fill="#183861"/>
<path d="M287.837 53.5072C285.709 54.2941 285.488 57.2189 287.483 58.1839C288.296 58.5848 288.946 58.5848 289.759 58.1839C290.675 57.7385 291.133 56.9962 291.133 56.0015C291.133 54.1456 289.478 52.8985 287.837 53.5072Z" fill="#183861"/>
<path d="M185.172 55.6303C185.172 56.7289 184.833 58.2878 184.448 59.045C183.872 60.1882 183.089 60.7078 181.079 61.2572C180.961 61.2869 180.887 61.5689 180.887 61.9698V62.6379L181.966 62.6824L183.03 62.727L183.103 68.5172C183.177 74.8864 183.177 74.7824 184.153 76.0296C184.921 77.0094 186.296 77.633 188.217 77.8705L188.97 77.9596L190.108 76.5047L191.246 75.0497L190.315 74.9606C189.118 74.8567 187.921 74.3222 187.493 73.7283C187.168 73.2681 187.168 73.2087 187.168 67.9975V62.727L188.025 62.6824C189.325 62.6082 190.463 62.8755 191.113 63.4099L191.675 63.8553V62.0589V60.2773H189.384H187.094V57.5307V54.784H186.133H185.172V55.6303Z" fill="#183861"/>
<path d="M276.059 55.4818C276.059 56.5508 275.778 58.0206 275.438 58.8223C274.892 60.0991 274.064 60.6781 271.966 61.2572C271.847 61.2869 271.773 61.5689 271.773 61.9698V62.6379L272.852 62.6824L273.916 62.727L273.99 68.5914C274.064 73.951 274.094 74.5004 274.345 74.9754C275.172 76.5195 276.266 77.3064 278.202 77.7221C279.828 78.0635 279.739 78.1081 280.995 76.4898L282.118 75.0497L281.099 74.9606C279.798 74.827 278.645 74.2331 278.246 73.4908C277.995 73.0157 277.98 72.5851 278.01 67.8491L278.054 62.727L278.911 62.6824C280.212 62.6082 281.35 62.8754 282 63.4099L282.562 63.8553V62.0589V60.2773H280.271H277.98V57.5307V54.784H277.02H276.059V55.4818Z" fill="#183861"/>
<path d="M304.049 59.6983C300.606 60.2773 297.547 62.8458 296.557 65.9932C296.128 67.374 296.099 70.2691 296.512 71.635C297.236 74.0698 298.818 75.9999 300.931 77.054C302.645 77.9002 303.916 78.1378 306.281 78.0487C309.429 77.9299 311.232 77.1876 313.241 75.1982C315.251 73.2087 315.901 71.4271 315.768 68.2945C315.665 65.533 314.97 63.8553 313.212 62.1034C312.059 60.9751 310.33 60.0694 308.675 59.7577C307.419 59.5201 305.276 59.4904 304.049 59.6983ZM307.906 62.6676C312.562 64.4195 312.931 72.7188 308.438 74.9309C307.729 75.2872 307.448 75.3466 306.355 75.3318C304.685 75.3169 303.68 74.9309 302.512 73.8323C301.877 73.2532 301.463 72.6891 301.079 71.8874L300.517 70.759V68.6805C300.532 66.8544 300.576 66.4832 300.872 65.7409C301.433 64.3007 302.897 62.92 304.286 62.4894C305.069 62.2519 307.049 62.341 307.906 62.6676Z" fill="#183861"/>
<path d="M163.374 60.0249C162.783 60.2179 161.882 60.3367 160.685 60.3812L158.882 60.4555L159.384 60.9751C159.724 61.3166 159.931 61.7323 160.034 62.2222C160.212 63.0239 160.256 74.7825 160.108 75.7475C160.049 76.0593 159.798 76.5641 159.502 76.9055L158.985 77.4994H162.266H165.532L165.089 76.9352C164.365 76.0296 164.32 75.5248 164.365 69.8979L164.409 64.761L164.852 64.182C165.103 63.8702 165.695 63.4248 166.167 63.1872C166.921 62.8012 167.202 62.7418 168.31 62.7418C169.729 62.727 170.468 62.9348 171.163 63.5139C172.005 64.2265 172.02 64.375 172.02 70.18C172.02 73.2236 171.961 75.7178 171.872 75.9999C171.798 76.282 171.517 76.7422 171.251 77.0095L170.778 77.4994H174.148H177.532L177.118 77.0837C176.246 76.2374 176.246 76.1632 176.158 69.7049L176.084 63.7663L175.67 62.8755C174.65 60.6782 172.833 59.7428 169.655 59.7725C168.414 59.7874 167.926 59.8616 167.217 60.1288C166.241 60.5 165.34 61.079 164.778 61.6877L164.409 62.0886L164.335 60.9157L164.261 59.7428L163.374 60.0249Z" fill="#183861"/>
<path d="M219.828 60.0101C219.266 60.2031 218.365 60.3367 217.36 60.3812L215.778 60.4703L216.236 61.0345C216.65 61.5541 216.709 61.7471 216.828 63.1279C217.034 65.3697 216.901 75.5248 216.665 76.089C216.562 76.3265 216.281 76.7571 216.015 77.0095L215.557 77.4994H218.897H222.236L221.823 77.054C221.054 76.2226 221.01 75.8811 221.01 70.8926C221.01 65.5182 221.084 65.0431 222.03 64.0632C222.68 63.3802 223.389 63.0982 224.409 63.0982C225.177 63.0982 226.079 63.3506 226.596 63.7217L226.995 64.0038V61.9698V59.9507L225.635 60.0101C224.468 60.0546 224.099 60.1437 223.197 60.5594C222.621 60.8266 221.926 61.272 221.66 61.5541C221.394 61.8362 221.113 62.0589 221.054 62.0589C220.995 62.0589 220.936 61.5244 220.936 60.8712C220.936 60.2179 220.892 59.6834 220.833 59.6983C220.759 59.7131 220.315 59.8468 219.828 60.0101Z" fill="#183861"/>
<path d="M234.163 60.0249C233.586 60.2031 232.64 60.3367 231.458 60.3812L229.626 60.4555L230.069 60.9306C230.926 61.8362 230.911 61.6432 230.956 68.2202C231.015 75.5396 230.985 75.9405 230.305 76.8313L229.803 77.4994H233.069H236.335L235.892 76.9798C235.64 76.6977 235.36 76.2226 235.286 75.9108C235.034 75.0052 235.079 65.2955 235.33 64.6868C235.581 64.0632 236.586 63.1872 237.296 62.9794C238.862 62.5043 240.68 62.6379 241.655 63.2912C241.921 63.4693 242.291 63.9147 242.483 64.2859C242.808 64.9243 242.808 65.0431 242.808 70.1503C242.808 73.3126 242.749 75.5693 242.645 75.9108C242.571 76.2226 242.291 76.6977 242.039 76.9798L241.596 77.4994H244.951H248.32L247.951 77.2025C247.744 77.0391 247.448 76.6234 247.3 76.282C247.049 75.7029 247.02 75.0497 246.946 69.7791C246.872 64.0483 246.857 63.8999 246.517 63.0239C246.044 61.8362 244.936 60.7227 243.798 60.307C241.862 59.5795 239.66 59.535 237.857 60.1882C236.926 60.5297 235.3 61.6283 235.241 61.9698C235.227 62.0589 235.182 61.5987 235.138 60.9306L235.049 59.7428L234.163 60.0249Z" fill="#183861"/>
<path d="M289.655 59.9358C289.286 60.0546 288.177 60.1882 287.172 60.2328L285.355 60.3218L285.783 60.7821C286.02 61.0345 286.3 61.3908 286.389 61.569C286.611 61.9995 286.626 75.5248 286.389 76.1187C286.315 76.3414 286.034 76.7571 285.768 77.0095L285.31 77.4994H288.695H292.079L291.532 76.9352C291.118 76.5195 290.956 76.178 290.837 75.5842C290.749 75.1091 290.69 71.7389 290.69 67.2404C290.69 61.2869 290.645 59.6834 290.512 59.6983C290.409 59.7131 290.025 59.8171 289.655 59.9358Z" fill="#183861"/>
<path d="M324.458 60.0249C323.882 60.2179 322.951 60.3367 321.842 60.3812L320.099 60.4555L320.527 60.9602C320.778 61.2275 321.044 61.7026 321.118 62.0144C321.34 62.7864 321.34 75.5545 321.118 76.1187C321.044 76.3414 320.764 76.7571 320.498 77.0095L320.039 77.4994H323.438C325.788 77.4845 326.749 77.44 326.571 77.3361C326.424 77.2618 326.128 76.8758 325.906 76.4898L325.493 75.792V70.373C325.493 65.4885 325.522 64.9095 325.744 64.4789C326.054 63.9296 326.749 63.3654 327.576 62.9942C328.36 62.6528 330.739 62.6528 331.493 62.9942C332.128 63.2763 332.911 64.1226 333.059 64.7016C333.133 64.9243 333.177 67.4334 333.177 70.2988C333.177 75.9702 333.148 76.2523 332.335 77.054L331.892 77.4994H335.261H338.631L338.172 77.0095C337.921 76.7571 337.655 76.3117 337.552 76.0296C337.448 75.6881 337.389 73.8323 337.389 70.4621C337.389 67.6561 337.315 64.9688 337.227 64.4344C336.798 61.7026 335.143 60.2031 332.143 59.8022C329.793 59.5053 327.562 60.114 326.099 61.465L325.434 62.0886L325.389 60.9157L325.345 59.7428L324.458 60.0249Z" fill="#183861"/>
<path d="M200.97 60.2031C197.808 60.9751 195.34 63.4248 194.542 66.5426C194.246 67.6561 194.217 70.0167 194.483 71.1302C195.296 74.7082 198.281 77.2321 202.507 77.9596C203.97 78.212 207.207 78.0636 208.212 77.7072C208.995 77.44 209.039 77.3806 210.03 75.792C210.591 74.8864 211.138 73.9659 211.271 73.7432L211.493 73.3275L210.34 73.9065C208.567 74.7973 207.429 75.1388 205.921 75.2278C203.498 75.3763 201.547 74.827 200.571 73.7135C199.744 72.7633 198.916 71.0411 198.813 70.0315L198.724 69.1853H205.123H211.522L211.434 67.7303C211.212 63.7514 209.246 61.079 205.906 60.2179C204.798 59.921 202.138 59.921 200.97 60.2031ZM205.36 63.0239C206.261 63.5881 206.911 64.6125 207.015 65.6221L207.089 66.3644H203.054H199.034L199.123 65.8745C199.271 65.0728 199.995 63.8256 200.557 63.3654C201.384 62.6973 202.079 62.5043 203.438 62.534C204.473 62.5785 204.724 62.6379 205.36 63.0239Z" fill="#183861"/>
<path d="M258.133 60.1734C257.453 60.3515 257.379 60.4258 256.108 62.2519C255.369 63.2912 254.778 64.1671 254.778 64.1968C254.778 64.2265 255.325 64.0632 256.005 63.8256C258.31 63.0388 260.172 62.7864 261.31 63.0982C263.128 63.6178 263.601 65.7112 262.064 66.498C261.739 66.6613 260.335 67.0325 258.916 67.3294C255.103 68.1312 253.611 68.8586 252.754 70.3285C252.384 70.9817 252.34 71.1747 252.34 72.4515C252.34 73.6838 252.384 73.9659 252.754 74.6934C252.975 75.1536 253.507 75.8663 253.936 76.282C255.517 77.7666 257.128 78.2417 259.33 77.8557C260.039 77.7369 260.66 77.5885 260.719 77.5291C260.956 77.2767 262.596 74.9161 262.552 74.8715C262.522 74.8418 262.049 74.9309 261.488 75.0645C258.074 75.8663 255.562 73.9659 256.7 71.442C256.936 70.9075 257.128 70.7442 257.926 70.3582C258.621 70.0315 262.581 68.8883 263.01 68.8883C263.025 68.8883 263.054 70.2097 263.054 71.8131C263.054 73.4314 263.128 75.0052 263.217 75.3169C263.66 76.9204 265.995 78.2863 267.768 77.9745C268.3 77.8854 268.463 77.7369 269.409 76.4601L270.458 75.0497L269.512 74.9458C268.522 74.8567 267.842 74.5746 267.473 74.144C267.31 73.9362 267.251 72.8672 267.192 68.4578C267.103 62.2964 267.163 62.5934 265.862 61.4205C264.65 60.3218 263.837 60.0843 261.133 60.0398C259.67 60.0101 258.591 60.0546 258.133 60.1734Z" fill="#183861"/>
<path d="M348.473 60.1585C347.837 60.2922 347.763 60.3664 346.448 62.2519C345.709 63.3357 345.118 64.2265 345.133 64.2414C345.148 64.271 345.562 64.1226 346.049 63.9444C348.384 63.0239 351.089 62.7418 352.227 63.306C353.719 64.0484 353.719 65.9784 352.227 66.602C351.961 66.7207 350.645 67.0325 349.315 67.3146C345.872 68.0569 344.616 68.5766 343.552 69.7643C343.005 70.373 342.562 71.5459 342.562 72.3922C342.562 74.5746 344.187 76.8313 346.36 77.6479C347.364 78.0339 349.153 78.0784 350.32 77.7518C351 77.5736 351.133 77.4549 352.005 76.2523C352.522 75.5396 352.906 74.9309 352.877 74.8864C352.832 74.8567 352.345 74.9309 351.783 75.0645C349.832 75.5248 347.926 75.0645 347.172 73.9214C346.877 73.4908 346.832 73.2681 346.877 72.4218C346.921 71.6201 346.995 71.3529 347.291 71.0263C347.882 70.3879 349.419 69.794 351.813 69.2595C352.374 69.1407 352.98 69.0071 353.172 68.9477L353.497 68.8587V72.021C353.497 74.9161 353.527 75.2279 353.808 75.8217C354.31 76.861 355.493 77.6776 356.882 77.9448C358.271 78.212 358.537 78.0636 359.704 76.5195C360.266 75.7623 360.739 75.1091 360.739 75.0794C360.739 75.0349 360.325 74.9755 359.808 74.9458C358.759 74.8567 358.034 74.5449 357.754 74.0401C357.606 73.8026 357.532 72.2734 357.473 68.2203C357.429 65.1915 357.384 62.7122 357.369 62.7122C357.355 62.6973 357.133 62.4301 356.882 62.1183C356.113 61.1384 355.094 60.4703 353.956 60.2179C352.803 59.9507 349.581 59.921 348.473 60.1585Z" fill="#183861"/>
<path d="M57.8719 76.3414C49.0936 82.7848 44.9557 85.8877 45.0887 85.962C45.4581 86.1698 77.1872 96.5031 77.2463 96.4437C77.2906 96.3991 71.0837 67.5373 70.8916 66.9286C70.8769 66.8692 65.0246 71.1153 57.8719 76.3414Z" fill="#183861"/>
<path d="M74.1872 68.5469C74.202 68.7696 80.5123 97.5572 80.5567 97.6017C80.6158 97.6463 115.552 109.078 119.69 110.4C121.522 110.993 121.655 111.008 121.315 110.696C121.123 110.503 111.946 102.278 100.936 92.4054C89.9261 82.5472 79.4039 73.1048 77.5567 71.442C75.6946 69.7791 74.1872 68.4726 74.1872 68.5469Z" fill="#183861"/>
<path d="M317.586 87.2982C316.566 87.699 314.852 87.9366 313.847 87.8178L312.961 87.7287L313.493 88.3374C313.892 88.8125 314.039 89.1391 314.113 89.733C314.158 90.1487 314.187 95.0184 314.158 100.541L314.113 110.578L313.64 111.261L313.153 111.944H316.271H319.389L319.005 111.498C318.355 110.711 318.31 110.207 318.355 104.609L318.399 99.3685L318.798 98.7746C319.36 97.9135 320.557 97.3642 322.02 97.2751C323.764 97.1712 324.946 97.6463 325.67 98.7152C326.01 99.22 326.01 99.2497 326.01 104.58C326.01 107.653 325.951 110.162 325.862 110.444C325.788 110.726 325.507 111.186 325.241 111.454L324.768 111.944H328.064H331.345L330.975 111.454C330.251 110.503 330.236 110.429 330.163 104.075C330.074 98.151 330.074 98.0471 329.719 97.2899C328.759 95.1372 325.788 93.8752 322.522 94.2464C321 94.4245 320.365 94.6918 319.153 95.6865L318.325 96.3546L318.296 91.6928L318.251 87.0309L317.586 87.2982Z" fill="#183861"/>
<path d="M254.852 87.5506C254.438 87.6693 253.419 87.7733 252.547 87.7881L250.98 87.8178L251.409 88.3523C251.631 88.6344 251.897 89.1094 251.97 89.3915C252.192 90.1339 252.163 109.672 251.956 110.325C251.867 110.607 251.586 111.082 251.35 111.379L250.921 111.944H254.202H257.497L257.039 111.454C256.138 110.503 256.182 111.246 256.138 98.7598C256.094 88.0553 256.079 87.2982 255.842 87.313C255.709 87.313 255.266 87.4169 254.852 87.5506Z" fill="#183861"/>
<path d="M280.64 87.4466C277.227 87.7881 274.626 89.347 273.502 91.7076C273.059 92.6429 273.03 92.8211 273.03 94.2761C273.03 95.7162 273.059 95.9092 273.502 96.8297C274.005 97.9135 275.01 99.027 276.059 99.6951C276.414 99.9178 277.803 100.571 279.148 101.135C282.99 102.768 284.409 103.689 284.867 104.891C285.65 106.97 283.729 109.034 280.832 109.227C278.793 109.375 275.424 108.44 273.458 107.207C272.941 106.881 272.512 106.688 272.512 106.792C272.527 106.896 272.808 108.009 273.148 109.271L273.768 111.572L274.522 111.81C276.399 112.419 280.227 112.641 282.266 112.255C284.305 111.869 286.552 110.652 287.734 109.316C288.059 108.93 288.547 108.187 288.813 107.653C289.271 106.718 289.286 106.599 289.286 104.877C289.286 103.184 289.256 103.05 288.842 102.219C288.517 101.581 288.133 101.12 287.438 100.571C286.049 99.4278 285.207 98.9676 282.458 97.7799C278.246 95.9537 277.345 95.1966 277.345 93.415C277.345 91.3364 279.813 90.0151 282.946 90.4159C284.143 90.5644 285.03 90.9653 286.448 92.0045L287.143 92.5242V90.2972V88.085L286.3 87.8475C284.394 87.313 282.99 87.2239 280.64 87.4466Z" fill="#183861"/>
<path d="M387.34 87.5506C386.897 87.6545 385.847 87.7732 385.02 87.7881C384.177 87.8029 383.498 87.8326 383.498 87.8623C383.498 87.892 383.719 88.1741 383.985 88.5156L384.458 89.1094L384.502 99.4575C384.532 106.628 384.502 109.969 384.384 110.355C384.296 110.652 384.015 111.142 383.778 111.424L383.32 111.944H386.601H389.882L389.365 111.35C389.084 111.008 388.818 110.533 388.759 110.281C388.714 110.028 388.67 104.758 388.67 98.5667C388.67 87.9217 388.655 87.2982 388.419 87.313C388.271 87.3279 387.783 87.4318 387.34 87.5506Z" fill="#183861"/>
<path d="M147.325 88.1147C147.576 88.4117 147.916 88.9016 148.079 89.2282C148.36 89.7924 148.374 90.0893 148.374 99.3833C148.374 105.723 148.315 109.212 148.212 109.717C148.108 110.192 147.842 110.726 147.473 111.201L146.897 111.944H152.468C159.547 111.944 161.616 111.706 163.818 110.607C165.665 109.702 167.793 107.475 168.842 105.337C169.862 103.243 170.025 102.486 170.025 99.5466C170.025 97.3493 169.98 96.8742 169.685 95.835C168.798 92.7766 167.025 90.7277 163.966 89.2282C161.202 87.8772 159.089 87.6099 151.271 87.5951H146.867L147.325 88.1147ZM158.941 90.9207C162.103 91.767 164.291 93.8158 165.163 96.7258C165.502 97.8393 165.547 101.061 165.236 102.293C164.468 105.426 162.207 107.727 159 108.618C158.276 108.826 157.493 108.885 155.69 108.9C154.389 108.9 153.207 108.855 153.074 108.796C152.823 108.692 152.808 108.128 152.808 99.7842V90.8762L153.296 90.7277C154.005 90.505 157.877 90.6386 158.941 90.9207Z" fill="#183861"/>
<path d="M176.897 87.9366C175.729 88.3226 175.123 89.1688 175.123 90.3863C175.123 91.3216 175.389 91.9006 176.039 92.4054C177 93.1329 178.315 93.0883 179.217 92.3015C180.148 91.4701 180.399 90.312 179.867 89.2579C179.512 88.5601 179.128 88.2187 178.419 87.9514C177.739 87.7139 177.576 87.7139 176.897 87.9366Z" fill="#183861"/>
<path d="M209.764 87.8772C208.833 88.1147 208.167 88.8274 207.946 89.8518C207.739 90.7723 207.975 91.5443 208.685 92.2272C209.335 92.8508 209.897 93.0141 210.857 92.8656C211.744 92.732 212.734 91.7967 212.882 90.9653C213.236 89.0649 211.581 87.4169 209.764 87.8772Z" fill="#183861"/>
<path d="M24.7832 100.586L7.65517 113.131H44.335C73.6256 113.131 81 113.087 80.9409 112.953C80.9113 112.849 80.2611 109.91 79.5074 106.421C78.7389 102.932 78.0887 100.007 78.0296 99.9178C77.9557 99.8139 43.2709 88.3671 42.1921 88.1147C41.9704 88.0553 37.3596 91.3661 24.7832 100.586Z" fill="#183861"/>
<path d="M221.335 90.609C221.158 93.6822 220.064 95.1223 217.507 95.6717C217.123 95.7607 217.094 95.8201 217.094 96.5031V97.2454H218.202H219.31V102.501C219.31 105.396 219.384 108.098 219.458 108.529C219.65 109.509 220.36 110.652 221.143 111.216C221.808 111.706 223.138 112.166 224.35 112.315L225.163 112.419L226.3 110.993C226.921 110.221 227.438 109.553 227.438 109.524C227.438 109.494 226.995 109.42 226.448 109.39C225.177 109.301 224.01 108.737 223.64 108.039C223.404 107.608 223.374 107.014 223.33 102.397L223.286 97.2157L224.985 97.2751C226.64 97.3196 226.685 97.3345 227.276 97.8096L227.882 98.2995V96.5031V94.7215H225.591H223.3V91.9749V89.2282H222.355H221.424L221.335 90.609Z" fill="#183861"/>
<path d="M343.966 94.0831C341.823 94.38 339.828 95.3896 338.276 96.9485C336.414 98.8043 335.704 100.556 335.719 103.333C335.719 106.02 336.443 107.98 338.054 109.687C339.133 110.845 340.182 111.513 341.704 112.047C343.138 112.552 346.182 112.686 347.882 112.33C351.192 111.617 353.956 109.241 354.916 106.242C355.241 105.233 355.315 104.758 355.315 103.333C355.33 100.393 354.621 98.4925 352.833 96.6961C351.015 94.8699 348.591 93.9495 345.695 93.994C344.985 94.0088 344.217 94.0534 343.966 94.0831ZM347.453 97.1415C348.562 97.6017 349.256 98.1956 349.951 99.2349C350.69 100.319 350.985 101.284 351.089 102.902C351.384 107.504 348.31 110.637 344.483 109.657C341.172 108.796 339.31 105.337 340.049 101.388C340.404 99.4724 341.749 97.7353 343.345 97.1118C344.468 96.6812 346.36 96.6961 347.453 97.1415Z" fill="#183861"/>
<path d="M367.094 94.187C364.936 94.6472 362.823 95.835 361.552 97.2899C360.103 98.9528 359.409 100.898 359.409 103.347C359.409 106.079 360.222 108.158 361.995 109.939C363.207 111.157 364.374 111.795 366.207 112.255C367.862 112.686 370.892 112.597 372.488 112.092C375.414 111.172 377.512 109.197 378.591 106.332C378.931 105.441 378.975 105.129 378.975 103.258C378.975 101.373 378.946 101.076 378.576 100.022C377.616 97.2751 375.68 95.3599 372.946 94.4839C371.453 94.0088 368.63 93.8604 367.094 94.187ZM371.409 97.2306C372.916 97.958 374.113 99.4576 374.557 101.18C374.837 102.308 374.837 104.505 374.542 105.634C374.113 107.311 373.049 108.707 371.704 109.375C370.965 109.731 370.685 109.791 369.532 109.791C368.35 109.791 368.098 109.746 367.197 109.316C364.596 108.069 363.236 105.203 363.68 101.922C364.02 99.4576 365.364 97.6314 367.3 97.0079C368.261 96.6812 370.552 96.8149 371.409 97.2306Z" fill="#183861"/>
<path d="M178.67 94.38C178.3 94.4988 177.192 94.6324 176.202 94.6769L174.384 94.766L174.783 95.2263C175.566 96.1616 175.566 96.1467 175.566 103.214C175.566 107.534 175.507 109.999 175.404 110.385C175.315 110.696 175.02 111.186 174.754 111.454L174.266 111.944H177.591H180.916L180.473 111.424C180.222 111.142 179.941 110.667 179.867 110.355C179.764 109.999 179.704 106.97 179.704 101.952C179.704 95.7904 179.66 94.1276 179.527 94.1425C179.424 94.1573 179.039 94.2612 178.67 94.38Z" fill="#183861"/>
<path d="M211.478 94.3652C211.108 94.4988 209.985 94.6324 208.936 94.6769L207.044 94.766L207.562 95.3005C207.857 95.5974 208.153 96.0725 208.227 96.3546C208.434 97.0821 208.419 109.627 208.212 110.355C208.138 110.652 207.828 111.142 207.547 111.424L207.03 111.944H210.369H213.724L213.207 111.35C212.926 111.008 212.66 110.533 212.601 110.281C212.557 110.028 212.512 106.302 212.512 101.981C212.512 95.7904 212.468 94.1276 212.335 94.1425C212.232 94.1425 211.847 94.2464 211.478 94.3652Z" fill="#183861"/>
<path d="M302.069 94.4245C297.576 94.8551 293.985 97.9432 293.261 101.996C292.552 105.99 294.414 109.568 298.212 111.483C299.749 112.27 301.138 112.567 303.251 112.582C304.7 112.597 305.379 112.523 306.429 112.27L307.759 111.929L309.044 109.895C309.739 108.781 310.315 107.846 310.3 107.831C310.286 107.816 309.606 108.143 308.793 108.544C306.946 109.464 305.571 109.776 303.842 109.672C301.108 109.509 298.759 107.95 297.916 105.738C297.266 104.03 297.384 101.536 298.197 100.022C298.744 98.9973 300.103 97.7799 301.064 97.4533C302.704 96.8891 305.335 97.2454 306.591 98.2104C306.857 98.4183 307.108 98.5816 307.153 98.5816C307.197 98.5816 307.241 97.7502 307.241 96.7406V94.8996L306.251 94.6769C304.966 94.38 303.473 94.2909 302.069 94.4245Z" fill="#183861"/>
<path d="M202.167 94.6472C200.926 94.8848 198.133 94.9145 194.335 94.7066C191.719 94.573 191.158 94.573 190.197 94.7809C186.325 95.5974 183.946 98.834 184.788 102.16C185.335 104.298 187.182 105.931 189.901 106.688L190.803 106.955L191.823 105.931C192.399 105.367 192.798 104.862 192.739 104.802C192.68 104.758 192.34 104.594 191.97 104.461C191.113 104.149 189.65 103.036 189.266 102.457C189.118 102.204 188.956 101.61 188.911 101.106C188.808 99.9326 189.118 99.0864 189.975 98.2995C192.163 96.2804 196.064 97.4978 196.714 100.423C197.172 102.486 196.123 104.075 193.197 105.797C191.823 106.599 191.527 106.925 191.527 107.608C191.527 108.336 192.133 109.286 192.857 109.702C193.271 109.939 193.788 110.028 194.941 110.103C197.261 110.236 198.429 110.86 199.33 112.389C199.67 112.938 199.729 113.235 199.729 114.096C199.714 115.299 199.374 116.101 198.591 116.769C196.552 118.506 192.148 118.61 189.709 116.991C187.98 115.833 187.833 113.918 189.414 113.057L190.123 112.686L188.571 112.76C186.369 112.894 185.557 113.146 184.714 113.992C183.857 114.854 183.695 115.536 184.064 116.784C184.493 118.268 185.941 119.426 188.379 120.243C192.355 121.594 197.823 121.045 200.882 119.011C202.094 118.209 203.261 116.873 203.66 115.848C204.103 114.675 204.207 112.849 203.882 111.751C203.291 109.702 201.635 108.529 198.576 108.009C195.68 107.519 195.591 107.089 198.089 105.753C200.276 104.609 201 103.555 201.103 101.447C201.163 100.23 201.133 100.007 200.793 99.2794C200.586 98.8191 200.113 98.1659 199.744 97.7947L199.064 97.1563L200.66 97.2157C202.212 97.2751 202.256 97.2751 202.419 96.9336C202.522 96.7406 202.862 96.0874 203.187 95.4935C203.867 94.2761 203.926 94.3206 202.167 94.6472Z" fill="#183861"/>
<path d="M236.32 94.573C235.951 94.6472 235.566 94.7957 235.463 94.8996C235.256 95.1075 232.773 98.641 232.803 98.6707C232.818 98.6855 233.498 98.4777 234.31 98.1956C236.867 97.3345 238.729 97.2009 239.941 97.7799C241.02 98.2995 241.374 99.6357 240.665 100.497C240.207 101.016 239.512 101.269 237.044 101.774C233.616 102.471 232.3 103.021 231.266 104.194C229.729 105.96 229.995 108.752 231.916 110.667C233.438 112.196 235.197 112.745 237.34 112.33C238.005 112.211 238.64 112.018 238.759 111.929C239.054 111.676 240.621 109.405 240.547 109.331C240.517 109.301 240.059 109.375 239.542 109.509C237.665 109.999 235.596 109.509 234.872 108.395C234.281 107.504 234.458 105.931 235.227 105.233C235.626 104.862 237.236 104.283 239.291 103.778C240.266 103.526 241.108 103.333 241.123 103.333C241.153 103.333 241.182 104.743 241.182 106.48C241.182 109.36 241.212 109.672 241.493 110.266C242.172 111.676 244.182 112.701 245.793 112.448C246.325 112.359 246.473 112.211 247.463 110.904L248.557 109.464L247.566 109.39C246.473 109.301 245.719 108.989 245.438 108.484C245.291 108.247 245.232 106.747 245.172 102.739C245.113 98.9082 245.039 97.2305 244.921 97.0078C244.522 96.3101 243 95.0778 242.202 94.8105C241.286 94.4988 237.429 94.3355 236.32 94.573Z" fill="#183861"/>
<path d="M81.2808 101.061C81.2808 101.135 81.8719 103.852 82.5813 107.118L83.8818 113.057L101.232 113.102C110.764 113.116 118.552 113.102 118.507 113.072C118.419 112.983 81.5911 100.957 81.4138 100.957C81.3399 100.957 81.2808 101.002 81.2808 101.061Z" fill="#183861"/>
</g>
<defs>
<clipPath id="clip0_91_759">
<rect width="390" height="121" fill="white"/>
</clipPath>
</defs>
</svg>
