<svg width="29" height="32" viewBox="0 0 29 32" fill="none" xmlns="http://www.w3.org/2000/svg">
<path fill-rule="evenodd" clip-rule="evenodd" d="M26.8417 12.5251L3.23841 0.305287C2.6217 -0.0653942 1.86698 -0.100606 1.22011 0.211105C0.573237 0.522817 0.117001 1.14153 0 1.86576C0.00808048 2.10637 0.0645193 2.34265 0.165753 2.55978L4.65974 13.7151C4.88529 14.4558 5.00805 15.2256 5.0244 16.0016C5.00811 16.7775 4.88535 17.5473 4.65974 18.288L0.165753 29.4433C0.0645193 29.6605 0.00808048 29.8968 0 30.1373C0.11783 30.8605 0.573983 31.4781 1.22015 31.7891C1.86634 32.1004 2.62006 32.0653 3.23633 31.6957L26.8417 19.4759C28.158 18.8477 29 17.4918 29 16.0005C29 14.5092 28.158 13.1533 26.8417 12.5251Z" fill="#183861"/>
</svg>
